<svg id="Capa_1" data-name="Capa 1" xmlns="http://www.w3.org/2000/svg" viewBox="0 0 65 62.86"><defs><style>.cls-1{fill:#ff5252;}</style></defs><title>niLogo_jan2016</title><rect class="cls-1" x="45.29" width="19.59" height="9.79"/><path class="cls-1" d="M62.91,30.27V81.43H82.5V30.27H62.91Zm14.4,42.9H68.1V68.22h9.22v4.95Zm0-8.83H68.1V59.39h9.22v4.95ZM42.77,32.46v19l-25.27-19v49H35.81v-6h0l7,5.22v0.76H61.08V46.28Zm-11.5,40.7H22V68.22h9.22v4.95Zm0-8.83H22V59.39h9.22v4.95Zm25.21,8.83H47.26V68.22h9.22v4.95Zm0-8.83H47.26V59.39h9.22v4.95Z" transform="translate(-17.5 -18.57)"/></svg>